<svg width="50" height="50" viewBox="0 0 50 50" fill="none" xmlns="http://www.w3.org/2000/svg">
<path fill-rule="evenodd" clip-rule="evenodd" d="M39.5001 42C38.8601 42 38.2206 41.756 37.7321 41.268L23.7321 27.268C22.7561 26.2915 22.7561 24.7085 23.7321 23.732C24.7086 22.756 26.2916 22.756 27.2681 23.732L41.2681 37.732C42.2441 38.7085 42.2441 40.2915 41.2681 41.268C40.7796 41.756 40.1401 42 39.5001 42Z" fill="#4CBA3C"/>
<path fill-rule="evenodd" clip-rule="evenodd" d="M37.0001 25C37.0001 18.3725 31.6276 13 25.0001 13C18.3726 13 13.0001 18.3725 13.0001 25C13.0001 31.6275 18.3726 37 25.0001 37C31.6276 37 37.0001 31.6275 37.0001 25Z" fill="#7BD66D"/>
<path fill-rule="evenodd" clip-rule="evenodd" d="M34.0001 25C34.0001 20.0295 29.9706 16 25.0001 16C20.0296 16 16.0001 20.0295 16.0001 25C16.0001 29.9705 20.0296 34 25.0001 34C29.9706 34 34.0001 29.9705 34.0001 25Z" fill="white"/>
<path fill-rule="evenodd" clip-rule="evenodd" d="M32.0001 25C32.0001 21.134 28.8661 18 25.0001 18C21.1341 18 18.0001 21.134 18.0001 25C18.0001 28.866 21.1341 32 25.0001 32C28.8661 32 32.0001 28.866 32.0001 25Z" fill="white"/>
<path fill-rule="evenodd" clip-rule="evenodd" d="M12.0001 14C10.8971 14 10.0001 13.103 10.0001 12C10.0001 10.897 10.8971 10 12.0001 10C13.1031 10 14.0001 10.897 14.0001 12C14.0001 13.103 13.1031 14 12.0001 14Z" fill="#AAAAAA" fill-opacity="0.6"/>
<path fill-rule="evenodd" clip-rule="evenodd" d="M21.0001 44C19.8971 44 19.0001 43.103 19.0001 42C19.0001 40.897 19.8971 40 21.0001 40C22.1031 40 23.0001 40.897 23.0001 42C23.0001 43.103 22.1031 44 21.0001 44Z" fill="#AAAAAA" fill-opacity="0.6"/>
<path fill-rule="evenodd" clip-rule="evenodd" d="M42.0001 22C40.8971 22 40.0001 21.103 40.0001 20C40.0001 18.897 40.8971 18 42.0001 18C43.1031 18 44.0001 18.897 44.0001 20C44.0001 21.103 43.1031 22 42.0001 22Z" fill="#AAAAAA" fill-opacity="0.6"/>
<path fill-rule="evenodd" clip-rule="evenodd" d="M17.7542 41.1654C17.8247 40.7424 17.6217 40.3149 17.2407 40.1189C11.7592 37.2944 8.00024 31.5794 8.00024 24.9999C8.00024 21.7664 8.90974 18.7424 10.4837 16.1659C10.7652 15.7054 10.6282 15.1049 10.1757 14.8099C9.69874 14.4984 9.05924 14.6464 8.76324 15.1329C7.01124 18.0089 6.00024 21.3859 6.00024 24.9999C6.00024 32.3624 10.1882 38.7454 16.3117 41.8999C16.9127 42.2094 17.6432 41.8324 17.7542 41.1654Z" fill="#AAAAAA" fill-opacity="0.3"/>
<mask id="mask0_119_190" style="mask-type:luminance" maskUnits="userSpaceOnUse" x="23" y="39" width="12" height="5">
<path fill-rule="evenodd" clip-rule="evenodd" d="M23.9471 39.7592H34.7006V44H23.9471V39.7592Z" fill="white"/>
</mask>
<g mask="url(#mask0_119_190)">
<path fill-rule="evenodd" clip-rule="evenodd" d="M23.9486 42.9532C23.9181 43.5212 24.3696 43.9987 24.9381 43.9997L25.0001 44.0002C28.3396 44.0002 31.4756 43.1352 34.2016 41.6212C34.7701 41.3062 34.8706 40.5277 34.4111 40.0682L34.3861 40.0437C34.0711 39.7277 33.5871 39.6732 33.1971 39.8892C30.7646 41.2337 27.9701 42.0002 25.0001 42.0002H24.9546C24.4191 42.0002 23.9776 42.4187 23.9486 42.9532Z" fill="#AAAAAA" fill-opacity="0.3"/>
</g>
<mask id="mask1_119_190" style="mask-type:luminance" maskUnits="userSpaceOnUse" x="39" y="23" width="6" height="12">
<path fill-rule="evenodd" clip-rule="evenodd" d="M39.7592 23.2325H44.0001V34.7004H39.7592V23.2325Z" fill="white"/>
</mask>
<g mask="url(#mask1_119_190)">
<path fill-rule="evenodd" clip-rule="evenodd" d="M42.6952 23.28C42.2552 23.4045 41.9617 23.8155 41.9827 24.2725C41.9942 24.5135 42.0002 24.756 42.0002 25C42.0002 27.97 41.2337 30.7645 39.8892 33.1965C39.6732 33.5875 39.7277 34.071 40.0432 34.3865L40.0682 34.411C40.5277 34.8705 41.3062 34.7695 41.6217 34.2015C43.1352 31.4755 44.0002 28.3395 44.0002 25C44.0002 24.7185 43.9937 24.439 43.9812 24.161C43.9527 23.532 43.3357 23.099 42.7302 23.27L42.6952 23.28Z" fill="#AAAAAA" fill-opacity="0.3"/>
</g>
<path fill-rule="evenodd" clip-rule="evenodd" d="M14.8111 10.1775C15.1056 10.629 15.7046 10.766 16.1646 10.485C18.7411 8.91 21.7656 8 25.0001 8C31.2492 8 36.7187 11.3915 39.6727 16.4285C39.9032 16.822 40.3832 16.9945 40.8192 16.8605C41.4342 16.6715 41.7207 15.956 41.3947 15.401C38.0962 9.7775 31.9907 6 25.0001 6C21.3851 6 18.0076 7.0115 15.1311 8.764C14.6456 9.06 14.4981 9.698 14.8091 10.174L14.8111 10.1775Z" fill="#AAAAAA" fill-opacity="0.3"/>
<path fill-rule="evenodd" clip-rule="evenodd" d="M22.0001 23.5L22.0001 22.5C22.0001 20.8435 23.3436 19.5 25.0001 19.5C26.6566 19.5 28.0001 20.8435 28.0001 22.5L28.0001 23.5C28.5521 23.5 29.0001 23.948 29.0001 24.5V28.5C29.0001 29.052 28.5521 29.5 28.0001 29.5H22.0001C21.4481 29.5 21.0001 29.052 21.0001 28.5V24.5C21.0001 23.948 21.4481 23.5 22.0001 23.5ZM23.5001 23.5H26.5001V22.5C26.5001 21.6715 25.8286 21 25.0001 21C24.1716 21 23.5001 21.6715 23.5001 22.5V23.5Z" fill="#AAAAAA" fill-opacity="0.6"/>
</svg>
